<?xml version="1.0" encoding="UTF-8" standalone="no"?>
<!DOCTYPE svg PUBLIC "-//W3C//DTD SVG 1.1//EN"
 "http://www.w3.org/Graphics/SVG/1.1/DTD/svg11.dtd">
<!-- Generated by graphviz version 12.2.1 (20241206.2353)
 -->
<!-- Title: dependency&#45;cruiser output Pages: 1 -->
<svg width="220pt" height="200pt"
 viewBox="0.00 0.00 219.75 200.00" xmlns="http://www.w3.org/2000/svg" xmlns:xlink="http://www.w3.org/1999/xlink">
<g id="graph0" class="graph" transform="scale(1 1) rotate(0) translate(4 196)">
<title>dependency&#45;cruiser output</title>
<polygon fill="white" stroke="none" points="-4,4 -4,-196 215.75,-196 215.75,4 -4,4"/>
<g id="clust1" class="cluster">
<title>cluster_src</title>
<path fill="#ffffff" stroke="black" stroke-width="2" d="M20,-8C20,-8 191.75,-8 191.75,-8 197.75,-8 203.75,-14 203.75,-20 203.75,-20 203.75,-172 203.75,-172 203.75,-178 197.75,-184 191.75,-184 191.75,-184 20,-184 20,-184 14,-184 8,-178 8,-172 8,-172 8,-20 8,-20 8,-14 14,-8 20,-8"/>
<text text-anchor="middle" x="105.88" y="-171.45" font-family="Helvetica,sans-Serif" font-weight="bold" font-size="9.00">src</text>
</g>
<g id="clust2" class="cluster">
<title>cluster_src/app</title>
<path fill="#ffffff" stroke="black" stroke-width="2" d="M28,-16C28,-16 183.75,-16 183.75,-16 189.75,-16 195.75,-22 195.75,-28 195.75,-28 195.75,-146 195.75,-146 195.75,-152 189.75,-158 183.75,-158 183.75,-158 28,-158 28,-158 22,-158 16,-152 16,-146 16,-146 16,-28 16,-28 16,-22 22,-16 28,-16"/>
<text text-anchor="middle" x="105.88" y="-145.45" font-family="Helvetica,sans-Serif" font-weight="bold" font-size="9.00">app</text>
</g>
<g id="clust3" class="cluster">
<title>cluster_src/app/test</title>
<path fill="#ffffff" stroke="black" stroke-width="2" d="M36,-24C36,-24 82,-24 82,-24 88,-24 94,-30 94,-36 94,-36 94,-64 94,-64 94,-70 88,-76 82,-76 82,-76 36,-76 36,-76 30,-76 24,-70 24,-64 24,-64 24,-36 24,-36 24,-30 30,-24 36,-24"/>
<text text-anchor="middle" x="59" y="-63.45" font-family="Helvetica,sans-Serif" font-weight="bold" font-size="9.00">test</text>
</g>
<!-- src/app/globals.css -->
<g id="node1" class="node">
<title>src/app/globals.css</title>
<g id="a_node1"><a xlink:href="src/app/globals.css" xlink:title="globals.css">
<path fill="#ffffcc" stroke="black" d="M169.83,-101.88C169.83,-101.88 119.92,-101.88 119.92,-101.88 116.96,-101.88 114,-98.92 114,-95.96 114,-95.96 114,-90.04 114,-90.04 114,-87.08 116.96,-84.12 119.92,-84.12 119.92,-84.12 169.83,-84.12 169.83,-84.12 172.79,-84.12 175.75,-87.08 175.75,-90.04 175.75,-90.04 175.75,-95.96 175.75,-95.96 175.75,-98.92 172.79,-101.88 169.83,-101.88"/>
<text text-anchor="start" x="122" y="-89.33" font-family="Helvetica,sans-Serif" font-size="9.00">globals.css</text>
</a>
</g>
</g>
<!-- src/app/layout.tsx -->
<g id="node2" class="node">
<title>src/app/layout.tsx</title>
<g id="a_node2"><a xlink:href="src/app/layout.tsx" xlink:title="layout.tsx">
<path fill="#bbfeff" stroke="black" d="M80.21,-101.88C80.21,-101.88 37.79,-101.88 37.79,-101.88 34.83,-101.88 31.88,-98.92 31.88,-95.96 31.88,-95.96 31.88,-90.04 31.88,-90.04 31.88,-87.08 34.83,-84.12 37.79,-84.12 37.79,-84.12 80.21,-84.12 80.21,-84.12 83.17,-84.12 86.12,-87.08 86.12,-90.04 86.12,-90.04 86.12,-95.96 86.12,-95.96 86.12,-98.92 83.17,-101.88 80.21,-101.88"/>
<text text-anchor="start" x="39.88" y="-89.33" font-family="Helvetica,sans-Serif" font-size="9.00">layout.tsx</text>
</a>
</g>
</g>
<!-- src/app/layout.tsx&#45;&gt;src/app/globals.css -->
<g id="edge1" class="edge">
<title>src/app/layout.tsx&#45;&gt;src/app/globals.css</title>
<path fill="none" stroke="#000000" stroke-width="2" stroke-opacity="0.200000" d="M86.54,-93C92.34,-93 98.6,-93 104.78,-93"/>
<polygon fill="#000000" fill-opacity="0.200000" stroke="#000000" stroke-width="2" stroke-opacity="0.200000" points="104.69,-95.1 110.69,-93 104.69,-90.9 104.69,-95.1"/>
</g>
<!-- src/app/page.module.css -->
<g id="node3" class="node">
<title>src/app/page.module.css</title>
<g id="a_node3"><a xlink:href="src/app/page.module.css" xlink:title="page.module.css">
<path fill="#ffffcc" stroke="black" d="M181.83,-131.88C181.83,-131.88 107.92,-131.88 107.92,-131.88 104.96,-131.88 102,-128.92 102,-125.96 102,-125.96 102,-120.04 102,-120.04 102,-117.08 104.96,-114.12 107.92,-114.12 107.92,-114.12 181.83,-114.12 181.83,-114.12 184.79,-114.12 187.75,-117.08 187.75,-120.04 187.75,-120.04 187.75,-125.96 187.75,-125.96 187.75,-128.92 184.79,-131.88 181.83,-131.88"/>
<text text-anchor="start" x="110" y="-119.33" font-family="Helvetica,sans-Serif" font-size="9.00">page.module.css</text>
</a>
</g>
</g>
<!-- src/app/page.tsx -->
<g id="node4" class="node">
<title>src/app/page.tsx</title>
<g id="a_node4"><a xlink:href="src/app/page.tsx" xlink:title="page.tsx">
<path fill="#bbfeff" stroke="black" d="M80.08,-131.88C80.08,-131.88 37.92,-131.88 37.92,-131.88 34.96,-131.88 32,-128.92 32,-125.96 32,-125.96 32,-120.04 32,-120.04 32,-117.08 34.96,-114.12 37.92,-114.12 37.92,-114.12 80.08,-114.12 80.08,-114.12 83.04,-114.12 86,-117.08 86,-120.04 86,-120.04 86,-125.96 86,-125.96 86,-128.92 83.04,-131.88 80.08,-131.88"/>
<text text-anchor="start" x="41.75" y="-119.33" font-family="Helvetica,sans-Serif" font-size="9.00">page.tsx</text>
</a>
</g>
</g>
<!-- src/app/page.tsx&#45;&gt;src/app/page.module.css -->
<g id="edge2" class="edge">
<title>src/app/page.tsx&#45;&gt;src/app/page.module.css</title>
<path fill="none" stroke="#000000" stroke-width="2" stroke-opacity="0.200000" d="M86.08,-123C88.27,-123 90.52,-123 92.82,-123"/>
<polygon fill="#000000" fill-opacity="0.200000" stroke="#000000" stroke-width="2" stroke-opacity="0.200000" points="92.76,-125.1 98.76,-123 92.76,-120.9 92.76,-125.1"/>
</g>
<!-- src/app/test/page.tsx -->
<g id="node5" class="node">
<title>src/app/test/page.tsx</title>
<g id="a_node5"><a xlink:href="src/app/test/page.tsx" xlink:title="no&#45;orphans">
<path fill="#ccffcc" stroke="orange" d="M80.08,-49.88C80.08,-49.88 37.92,-49.88 37.92,-49.88 34.96,-49.88 32,-46.92 32,-43.96 32,-43.96 32,-38.04 32,-38.04 32,-35.08 34.96,-32.12 37.92,-32.12 37.92,-32.12 80.08,-32.12 80.08,-32.12 83.04,-32.12 86,-35.08 86,-38.04 86,-38.04 86,-43.96 86,-43.96 86,-46.92 83.04,-49.88 80.08,-49.88"/>
<text text-anchor="start" x="41.75" y="-37.33" font-family="Helvetica,sans-Serif" font-size="9.00" fill="orange">page.tsx</text>
</a>
</g>
</g>
</g>
</svg>
